<svg id="Layer_1" data-name="Layer 1" xmlns="http://www.w3.org/2000/svg" viewBox="0 0 50 50"><defs><style>.cls-1{fill:#28a8e9;}.cls-2{fill:#fff;}</style></defs><title>Information</title><circle class="cls-1" cx="25" cy="25" r="25"/><path class="cls-2" d="M28,18V35a26.14,26.14,0,0,0,0,3.37,2.08,2.08,0,0,0,.74,1.23,5,5,0,0,0,1.77.74v1.18H20.09V40.34a7,7,0,0,0,1.34-.51,1.94,1.94,0,0,0,.68-.6,3.11,3.11,0,0,0,.43-1.18,13.59,13.59,0,0,0,.16-2.49V25c0-1,0-1.85-.05-2.48a3.62,3.62,0,0,0-.34-1.51,1.76,1.76,0,0,0-.88-.84,6.3,6.3,0,0,0-1.68-.47V18.46Zm0-6.83v.35a3.22,3.22,0,0,1-3.23,3.22h0a3.22,3.22,0,0,1-3.22-3.22v-.35a3.22,3.22,0,0,1,3.22-3.23h0A3.22,3.22,0,0,1,28,11.17Z" transform="translate(0)"/></svg>